M48
; DRILL file KiCad 10.0.0 date 2026-06-02T21:28:32
; FORMAT={-:-/ absolute / metric / decimal}
; #@! TF.CreationDate,2026-06-02T21:28:32+02:00
; #@! TF.GenerationSoftware,Kicad,Pcbnew,10.0.0
; #@! TF.FileFunction,Plated,1,4,PTH
FMAT,2
METRIC
; #@! TA.AperFunction,Plated,PTH,ViaDrill
T1C0.300
; #@! TA.AperFunction,Plated,PTH,ViaDrill
T2C0.500
; #@! TA.AperFunction,Plated,PTH,ComponentDrill
T3C1.000
; #@! TA.AperFunction,Plated,PTH,ComponentDrill
T4C2.200
%
G90
G05
T1
X197.0Y-152.0
X201.4Y-156.6
X203.375Y-153.0
X204.625Y-153.0
X208.5Y-152.0
X209.0Y-127.5
X210.0Y-153.5
X210.0Y-154.5
X216.5Y-156.5
X217.5Y-128.0
X224.0Y-128.0
X230.0Y-137.0
X230.5Y-128.0
X231.837Y-145.1
X233.662Y-145.1
X236.0Y-131.5
X236.75Y-145.1
X237.0Y-128.0
X238.002Y-125.8
X238.575Y-145.1
X239.252Y-125.8
X240.4Y-153.1
X241.752Y-126.5
X242.0Y-143.5
X243.5Y-141.0
X245.0Y-141.0
X245.5Y-146.0
X247.0Y-146.0
X247.5Y-131.5
X248.0Y-146.0
X249.75Y-128.75
X250.2Y-152.5
X255.5Y-152.5
X256.0Y-145.5
X256.0Y-151.5
X258.5Y-145.5
X260.0Y-142.0
X261.25Y-134.83
X262.5Y-134.0
X263.0Y-132.0
X263.5Y-134.0
X264.5Y-140.0
X264.5Y-141.0
X264.5Y-145.5
X264.5Y-146.5
T2
X201.5Y-125.0
X202.208Y-152.8
X209.0Y-128.5
X210.5Y-152.0
X211.0Y-129.0
X217.0Y-152.5
X217.7Y-139.417
X219.55Y-139.45
X222.85Y-150.15
X231.75Y-139.45
X242.25Y-145.75
X244.25Y-127.2
X244.5Y-134.0
X248.5Y-132.5
X256.75Y-155.5
X257.25Y-124.75
X265.75Y-151.6
T3
X212.235Y-121.5
X212.235Y-125.5
X214.775Y-121.5
X214.775Y-125.5
T4
X198.0Y-122.2
X265.5Y-122.2
X265.5Y-155.2
M30
