%TF.GenerationSoftware,KiCad,Pcbnew,10.0.0*%
%TF.CreationDate,2026-06-02T21:28:21+02:00*%
%TF.ProjectId,stm32g474RET6 plytka,73746d33-3267-4343-9734-524554362070,rev?*%
%TF.SameCoordinates,Original*%
%TF.FileFunction,Copper,L2,Inr*%
%TF.FilePolarity,Positive*%
%FSLAX46Y46*%
G04 Gerber Fmt 4.6, Leading zero omitted, Abs format (unit mm)*
G04 Created by KiCad (PCBNEW 10.0.0) date 2026-06-02 21:28:21*
%MOMM*%
%LPD*%
G01*
G04 APERTURE LIST*
%TA.AperFunction,ComponentPad*%
%ADD10C,4.400000*%
%TD*%
%TA.AperFunction,ComponentPad*%
%ADD11R,1.700000X1.700000*%
%TD*%
%TA.AperFunction,ComponentPad*%
%ADD12C,1.700000*%
%TD*%
%TA.AperFunction,ViaPad*%
%ADD13C,0.600000*%
%TD*%
%TA.AperFunction,ViaPad*%
%ADD14C,1.000000*%
%TD*%
%TA.AperFunction,Conductor*%
%ADD15C,0.200000*%
%TD*%
%TA.AperFunction,Conductor*%
%ADD16C,0.500000*%
%TD*%
G04 APERTURE END LIST*
D10*
%TO.N,N/C*%
%TO.C,MH2*%
X265500000Y-122200000D03*
%TD*%
%TO.N,N/C*%
%TO.C,MH3*%
X265500000Y-155200000D03*
%TD*%
D11*
%TO.N,Net-(IC1-PC5)*%
%TO.C,JP1*%
X214775000Y-121500000D03*
D12*
%TO.N,Net-(JP1-B)*%
X212235000Y-121500000D03*
%TD*%
D11*
%TO.N,Net-(IC1-PC4)*%
%TO.C,JP2*%
X214775000Y-125500000D03*
D12*
%TO.N,Net-(JP2-B)*%
X212235000Y-125500000D03*
%TD*%
D10*
%TO.N,N/C*%
%TO.C,MH1*%
X198000000Y-122200000D03*
%TD*%
D13*
%TO.N,Net-(IC2-CANH)*%
X233662500Y-145100000D03*
%TO.N,Net-(IC2-CANL)*%
X231837500Y-145100000D03*
%TO.N,Net-(IC3-CANH)*%
X238575000Y-145100000D03*
%TO.N,Net-(IC3-CANL)*%
X236750000Y-145100000D03*
%TO.N,Net-(IC1-PB12)*%
X230500000Y-128000000D03*
%TO.N,Net-(IC1-PB13)*%
X237000000Y-128000000D03*
%TO.N,Net-(IC1-PA11)*%
X217500000Y-128000000D03*
%TO.N,Net-(IC1-PA12)*%
X224000000Y-128000000D03*
D14*
%TO.N,+3.3V*%
X217700500Y-139417025D03*
X219550000Y-139450000D03*
D13*
%TO.N,/SWCLK*%
X210000000Y-154500000D03*
X263500000Y-134000000D03*
%TO.N,/SWDIO*%
X210000000Y-153500000D03*
X262500000Y-134000000D03*
%TO.N,GND*%
X230000000Y-137000000D03*
X201400000Y-156600000D03*
X256000000Y-145500000D03*
X260000000Y-142000000D03*
X245000000Y-141000000D03*
X240400000Y-153100000D03*
X247500000Y-131500000D03*
X250200000Y-152500000D03*
X258500000Y-145500000D03*
X242000000Y-143500000D03*
X216500000Y-156500000D03*
X263000000Y-132000000D03*
D14*
%TO.N,+3.3V*%
X265750000Y-151600000D03*
X217000000Y-152500000D03*
X256750000Y-155500000D03*
X202207841Y-152799999D03*
X201500000Y-125000000D03*
X242250000Y-145750000D03*
X231750000Y-139450000D03*
%TO.N,+5V*%
X248500000Y-132500000D03*
X244250000Y-127200000D03*
X257250000Y-124750000D03*
D13*
%TO.N,Net-(IC1-PA2)*%
X241752008Y-126500000D03*
X248000000Y-146000000D03*
%TO.N,Net-(IC1-PA0)*%
X239252008Y-125800000D03*
X245500000Y-146000000D03*
%TO.N,Net-(IC1-PA1)*%
X238002008Y-125800000D03*
X247000000Y-146000000D03*
%TO.N,Net-(IC1-PA12)*%
X264500000Y-140000000D03*
%TO.N,Net-(IC1-PC5)*%
X256000000Y-151500000D03*
%TO.N,Net-(JP1-B)*%
X197000000Y-152000000D03*
%TO.N,Net-(IC1-PG10-NRST)*%
X209000000Y-127500000D03*
X243500000Y-141000000D03*
%TO.N,Net-(IC1-PB12)*%
X264500000Y-146500000D03*
%TO.N,Net-(IC1-PA11)*%
X264500000Y-141000000D03*
D14*
%TO.N,+12V*%
X222850000Y-150150000D03*
D13*
%TO.N,Net-(IC1-PB13)*%
X264500000Y-145500000D03*
%TO.N,Net-(IC1-PC4)*%
X255500000Y-152500000D03*
%TO.N,Net-(JP2-B)*%
X208500000Y-152000000D03*
D14*
%TO.N,Net-(IC5-IO0)*%
X210500000Y-152000000D03*
X211000000Y-129000000D03*
D13*
%TO.N,Net-(IC5-RXD0)*%
X203375000Y-153000000D03*
%TO.N,Net-(IC5-TXD0)*%
X204625000Y-153000000D03*
D14*
%TO.N,Net-(IC1-PB8-BOOT0)*%
X244500000Y-134000000D03*
X209000000Y-128500000D03*
D13*
%TO.N,Net-(IC4-SW)*%
X261250000Y-134830000D03*
X249750000Y-128750000D03*
%TO.N,GND*%
X236000000Y-131500000D03*
%TD*%
%TO.N,/SWCLK*%
D15*
X262600000Y-141665685D02*
X262600000Y-139334314D01*
X257000000Y-154500000D02*
X263500000Y-148000000D01*
X262600000Y-139334314D02*
X263500000Y-138434314D01*
X263500000Y-138434314D02*
X263500000Y-134000000D01*
X263500000Y-148000000D02*
X263500000Y-142565686D01*
X263500000Y-142565686D02*
X262600000Y-141665685D01*
X210000000Y-154500000D02*
X257000000Y-154500000D01*
%TO.N,/SWDIO*%
X210600000Y-154100000D02*
X210000000Y-153500000D01*
X262200000Y-139168628D02*
X262200000Y-141831371D01*
X263000000Y-147934314D02*
X256834314Y-154100000D01*
X262500000Y-134000000D02*
X262500000Y-138868628D01*
X262200000Y-141831371D02*
X263000000Y-142631371D01*
X263000000Y-142631371D02*
X263000000Y-147934314D01*
X256834314Y-154100000D02*
X210600000Y-154100000D01*
X262500000Y-138868628D02*
X262200000Y-139168628D01*
%TO.N,Net-(IC1-PA2)*%
X248000000Y-133428529D02*
X248000000Y-146000000D01*
X241752008Y-126500000D02*
X241752008Y-127180537D01*
X241752008Y-127180537D02*
X248000000Y-133428529D01*
%TO.N,Net-(IC1-PA0)*%
X239252008Y-139752008D02*
X245500000Y-146000000D01*
X239252008Y-125800000D02*
X239252008Y-139752008D01*
%TO.N,Net-(IC1-PA1)*%
X238002008Y-140502008D02*
X242000000Y-144500000D01*
X238002008Y-125800000D02*
X238002008Y-140502008D01*
X244650000Y-146600000D02*
X246400000Y-146600000D01*
X246400000Y-146600000D02*
X247000000Y-146000000D01*
X242000000Y-144500000D02*
X242550000Y-144500000D01*
X242550000Y-144500000D02*
X244650000Y-146600000D01*
%TO.N,Net-(IC1-PA12)*%
X257400000Y-121000000D02*
X266500000Y-130100000D01*
X224000000Y-128000000D02*
X224000000Y-122000000D01*
X266500000Y-137967157D02*
X264500000Y-139967157D01*
X264500000Y-139967157D02*
X264500000Y-140000000D01*
X225000000Y-121000000D02*
X257400000Y-121000000D01*
X266500000Y-130100000D02*
X266500000Y-137967157D01*
X224000000Y-122000000D02*
X225000000Y-121000000D01*
%TO.N,Net-(IC1-PC5)*%
X216500000Y-121500000D02*
X218500000Y-123500000D01*
X219500000Y-151500000D02*
X256000000Y-151500000D01*
X212500000Y-132000000D02*
X212500000Y-144500000D01*
X218500000Y-126000000D02*
X212500000Y-132000000D01*
X212500000Y-144500000D02*
X219500000Y-151500000D01*
X218500000Y-123500000D02*
X218500000Y-126000000D01*
X214775000Y-121500000D02*
X216500000Y-121500000D01*
%TO.N,Net-(JP1-B)*%
X197000000Y-131800000D02*
X206200000Y-122600000D01*
X197000000Y-152000000D02*
X197000000Y-131800000D01*
X208200000Y-122600000D02*
X209300000Y-121500000D01*
X206200000Y-122600000D02*
X208200000Y-122600000D01*
X209300000Y-121500000D02*
X212235000Y-121500000D01*
%TO.N,Net-(IC1-PB12)*%
X266000000Y-145000000D02*
X264500000Y-146500000D01*
X230500000Y-128000000D02*
X230500000Y-122500000D01*
X263900000Y-139600000D02*
X263900000Y-141400000D01*
X231500000Y-121500000D02*
X257100000Y-121500000D01*
X266000000Y-143500000D02*
X266000000Y-145000000D01*
X230500000Y-122500000D02*
X231500000Y-121500000D01*
X266000000Y-130400000D02*
X266000000Y-137500000D01*
X257100000Y-121500000D02*
X266000000Y-130400000D01*
X263900000Y-141400000D02*
X266000000Y-143500000D01*
X266000000Y-137500000D02*
X263900000Y-139600000D01*
%TO.N,Net-(IC1-PA11)*%
X222500000Y-120500000D02*
X257900000Y-120500000D01*
X221000000Y-126500000D02*
X221500000Y-126000000D01*
X257900000Y-120500000D02*
X267000000Y-129600000D01*
X221500000Y-126000000D02*
X221500000Y-121500000D01*
X217500000Y-128000000D02*
X219000000Y-126500000D01*
X267000000Y-129600000D02*
X267000000Y-138500000D01*
X221500000Y-121500000D02*
X222500000Y-120500000D01*
X219000000Y-126500000D02*
X221000000Y-126500000D01*
X267000000Y-138500000D02*
X264500000Y-141000000D01*
%TO.N,Net-(IC1-PB13)*%
X265500000Y-130900000D02*
X256600000Y-122000000D01*
X256600000Y-122000000D02*
X238000000Y-122000000D01*
X265500000Y-144000000D02*
X263000000Y-141500000D01*
X265500000Y-144500000D02*
X265500000Y-144000000D01*
X238000000Y-122000000D02*
X237000000Y-123000000D01*
X263000000Y-139500000D02*
X265500000Y-137000000D01*
X237000000Y-123000000D02*
X237000000Y-128000000D01*
X263000000Y-141500000D02*
X263000000Y-139500000D01*
X264500000Y-145500000D02*
X265500000Y-144500000D01*
X265500000Y-137000000D02*
X265500000Y-130900000D01*
%TO.N,Net-(IC1-PC4)*%
X214775000Y-129159314D02*
X212000000Y-131934315D01*
X254900000Y-151900000D02*
X255500000Y-152500000D01*
X212000000Y-131934315D02*
X212000000Y-145000000D01*
X212000000Y-145000000D02*
X218900000Y-151900000D01*
X218900000Y-151900000D02*
X254900000Y-151900000D01*
X214775000Y-125500000D02*
X214775000Y-129159314D01*
%TO.N,Net-(JP2-B)*%
X201000000Y-152000000D02*
X197500000Y-148500000D01*
X208200000Y-123200000D02*
X210500000Y-125500000D01*
X206400000Y-123200000D02*
X208200000Y-123200000D01*
X197500000Y-132100000D02*
X206400000Y-123200000D01*
X208500000Y-152000000D02*
X201000000Y-152000000D01*
X197500000Y-148500000D02*
X197500000Y-132100000D01*
X210500000Y-125500000D02*
X212235000Y-125500000D01*
%TO.N,Net-(IC5-IO0)*%
D16*
X210500000Y-129500000D02*
X210500000Y-152000000D01*
X211000000Y-129000000D02*
X210500000Y-129500000D01*
%TD*%
M02*
