%TF.GenerationSoftware,KiCad,Pcbnew,10.0.0*%
%TF.CreationDate,2026-06-02T21:28:21+02:00*%
%TF.ProjectId,stm32g474RET6 plytka,73746d33-3267-4343-9734-524554362070,rev?*%
%TF.SameCoordinates,Original*%
%TF.FileFunction,Paste,Top*%
%TF.FilePolarity,Positive*%
%FSLAX46Y46*%
G04 Gerber Fmt 4.6, Leading zero omitted, Abs format (unit mm)*
G04 Created by KiCad (PCBNEW 10.0.0) date 2026-06-02 21:28:21*
%MOMM*%
%LPD*%
G01*
G04 APERTURE LIST*
G04 Aperture macros list*
%AMRoundRect*
0 Rectangle with rounded corners*
0 $1 Rounding radius*
0 $2 $3 $4 $5 $6 $7 $8 $9 X,Y pos of 4 corners*
0 Add a 4 corners polygon primitive as box body*
4,1,4,$2,$3,$4,$5,$6,$7,$8,$9,$2,$3,0*
0 Add four circle primitives for the rounded corners*
1,1,$1+$1,$2,$3*
1,1,$1+$1,$4,$5*
1,1,$1+$1,$6,$7*
1,1,$1+$1,$8,$9*
0 Add four rect primitives between the rounded corners*
20,1,$1+$1,$2,$3,$4,$5,0*
20,1,$1+$1,$4,$5,$6,$7,0*
20,1,$1+$1,$6,$7,$8,$9,0*
20,1,$1+$1,$8,$9,$2,$3,0*%
G04 Aperture macros list end*
%ADD10R,1.800000X1.100000*%
%ADD11RoundRect,0.237500X0.237500X-0.250000X0.237500X0.250000X-0.237500X0.250000X-0.237500X-0.250000X0*%
%ADD12R,1.397000X2.260600*%
%ADD13R,0.838200X1.295400*%
%ADD14R,1.750000X0.600000*%
%ADD15R,0.300000X1.475000*%
%ADD16R,1.475000X0.300000*%
%ADD17RoundRect,0.237500X0.300000X0.237500X-0.300000X0.237500X-0.300000X-0.237500X0.300000X-0.237500X0*%
%ADD18RoundRect,0.237500X-0.237500X0.300000X-0.237500X-0.300000X0.237500X-0.300000X0.237500X0.300000X0*%
%ADD19RoundRect,0.237500X-0.287500X-0.237500X0.287500X-0.237500X0.287500X0.237500X-0.287500X0.237500X0*%
%ADD20RoundRect,0.237500X-0.250000X-0.237500X0.250000X-0.237500X0.250000X0.237500X-0.250000X0.237500X0*%
%ADD21RoundRect,0.250000X-1.000000X-0.650000X1.000000X-0.650000X1.000000X0.650000X-1.000000X0.650000X0*%
%ADD22RoundRect,0.237500X0.237500X-0.300000X0.237500X0.300000X-0.237500X0.300000X-0.237500X-0.300000X0*%
%ADD23RoundRect,0.237500X-0.300000X-0.237500X0.300000X-0.237500X0.300000X0.237500X-0.300000X0.237500X0*%
%ADD24RoundRect,0.237500X0.250000X0.237500X-0.250000X0.237500X-0.250000X-0.237500X0.250000X-0.237500X0*%
%ADD25RoundRect,0.237500X-0.237500X0.250000X-0.237500X-0.250000X0.237500X-0.250000X0.237500X0.250000X0*%
G04 APERTURE END LIST*
D10*
%TO.C,SW3*%
X206850000Y-140000000D03*
X198650000Y-140000000D03*
X206850000Y-135500000D03*
X198650000Y-135500000D03*
%TD*%
%TO.C,SW2*%
X207200000Y-148500000D03*
X199000000Y-148500000D03*
X207200000Y-144000000D03*
X199000000Y-144000000D03*
%TD*%
%TO.C,SW1*%
X206850000Y-131500000D03*
X198650000Y-131500000D03*
X206850000Y-127000000D03*
X198650000Y-127000000D03*
%TD*%
D11*
%TO.C,R16*%
X232250000Y-127837500D03*
X232250000Y-129662500D03*
%TD*%
%TO.C,R12*%
X219250000Y-127837500D03*
X219250000Y-129662500D03*
%TD*%
D12*
%TO.C,J4*%
X197724999Y-156790499D03*
X207775001Y-156790499D03*
D13*
X205875000Y-154495500D03*
X204625000Y-154495500D03*
X203375000Y-154495500D03*
X202125000Y-154495500D03*
X200875000Y-154495500D03*
X199625000Y-154495500D03*
%TD*%
D12*
%TO.C,J3*%
X246152009Y-120659501D03*
X236102007Y-120659501D03*
D13*
X238002008Y-122954500D03*
X239252008Y-122954500D03*
X240502008Y-122954500D03*
X241752008Y-122954500D03*
X243002008Y-122954500D03*
X244252008Y-122954500D03*
%TD*%
D12*
%TO.C,J2*%
X226224999Y-156790499D03*
X236275001Y-156790499D03*
D13*
X234375000Y-154495500D03*
X233125000Y-154495500D03*
X231875000Y-154495500D03*
X230625000Y-154495500D03*
X229375000Y-154495500D03*
X228125000Y-154495500D03*
%TD*%
D12*
%TO.C,J1*%
X212474999Y-156790499D03*
X220025001Y-156790499D03*
D13*
X218125000Y-154495500D03*
X216875000Y-154495500D03*
X215625000Y-154495500D03*
X214375000Y-154495500D03*
%TD*%
D14*
%TO.C,IC3*%
X239350000Y-133750000D03*
X239350000Y-135020000D03*
X239350000Y-136290000D03*
X239350000Y-137560000D03*
X234250000Y-137560000D03*
X234250000Y-136290000D03*
X234250000Y-135020000D03*
X234250000Y-133750000D03*
%TD*%
%TO.C,IC2*%
X219700000Y-133845000D03*
X219700000Y-135115000D03*
X219700000Y-136385000D03*
X219700000Y-137655000D03*
X224800000Y-137655000D03*
X224800000Y-136385000D03*
X224800000Y-135115000D03*
X224800000Y-133845000D03*
%TD*%
D15*
%TO.C,IC1*%
X253000000Y-137012000D03*
X253500000Y-137012000D03*
X254000000Y-137012000D03*
X254500000Y-137012000D03*
X255000000Y-137012000D03*
X255500000Y-137012000D03*
X256000000Y-137012000D03*
X256500000Y-137012000D03*
X257000000Y-137012000D03*
X257500000Y-137012000D03*
X258000000Y-137012000D03*
X258500000Y-137012000D03*
X259000000Y-137012000D03*
X259500000Y-137012000D03*
X260000000Y-137012000D03*
X260500000Y-137012000D03*
D16*
X262488000Y-139000000D03*
X262488000Y-139500000D03*
X262488000Y-140000000D03*
X262488000Y-140500000D03*
X262488000Y-141000000D03*
X262488000Y-141500000D03*
X262488000Y-142000000D03*
X262488000Y-142500000D03*
X262488000Y-143000000D03*
X262488000Y-143500000D03*
X262488000Y-144000000D03*
X262488000Y-144500000D03*
X262488000Y-145000000D03*
X262488000Y-145500000D03*
X262488000Y-146000000D03*
X262488000Y-146500000D03*
D15*
X260500000Y-148488000D03*
X260000000Y-148488000D03*
X259500000Y-148488000D03*
X259000000Y-148488000D03*
X258500000Y-148488000D03*
X258000000Y-148488000D03*
X257500000Y-148488000D03*
X257000000Y-148488000D03*
X256500000Y-148488000D03*
X256000000Y-148488000D03*
X255500000Y-148488000D03*
X255000000Y-148488000D03*
X254500000Y-148488000D03*
X254000000Y-148488000D03*
X253500000Y-148488000D03*
X253000000Y-148488000D03*
D16*
X251012000Y-146500000D03*
X251012000Y-146000000D03*
X251012000Y-145500000D03*
X251012000Y-145000000D03*
X251012000Y-144500000D03*
X251012000Y-144000000D03*
X251012000Y-143500000D03*
X251012000Y-143000000D03*
X251012000Y-142500000D03*
X251012000Y-142000000D03*
X251012000Y-141500000D03*
X251012000Y-141000000D03*
X251012000Y-140500000D03*
X251012000Y-140000000D03*
X251012000Y-139500000D03*
X251012000Y-139000000D03*
%TD*%
D11*
%TO.C,R17*%
X235250000Y-129662500D03*
X235250000Y-127837500D03*
%TD*%
%TO.C,R5*%
X222250000Y-129662500D03*
X222250000Y-127837500D03*
%TD*%
D17*
%TO.C,C7*%
X215025000Y-135750000D03*
X216750000Y-135750000D03*
%TD*%
D18*
%TO.C,C5*%
X248750000Y-148500000D03*
X248750000Y-150225000D03*
%TD*%
D19*
%TO.C,D1*%
X250875000Y-156250000D03*
X252625000Y-156250000D03*
%TD*%
D20*
%TO.C,R18*%
X245337500Y-153250000D03*
X247162500Y-153250000D03*
%TD*%
D17*
%TO.C,C17*%
X246862500Y-144000000D03*
X245137500Y-144000000D03*
%TD*%
D21*
%TO.C,D2*%
X224250000Y-147250000D03*
X228250000Y-147250000D03*
%TD*%
D22*
%TO.C,C4*%
X265750000Y-137112500D03*
X265750000Y-135387500D03*
%TD*%
D23*
%TO.C,C6*%
X262387500Y-150750000D03*
X264112500Y-150750000D03*
%TD*%
D17*
%TO.C,C3*%
X251612500Y-134750000D03*
X249887500Y-134750000D03*
%TD*%
D18*
%TO.C,C1*%
X259750000Y-151387500D03*
X259750000Y-153112500D03*
%TD*%
D11*
%TO.C,R6*%
X254750000Y-134162500D03*
X254750000Y-132337500D03*
%TD*%
D17*
%TO.C,C10*%
X247475000Y-139250000D03*
X245750000Y-139250000D03*
%TD*%
D24*
%TO.C,R1*%
X262112500Y-155100000D03*
X260287500Y-155100000D03*
%TD*%
%TO.C,R4*%
X243162500Y-142250000D03*
X241337500Y-142250000D03*
%TD*%
D17*
%TO.C,C8*%
X231112500Y-135250000D03*
X229387500Y-135250000D03*
%TD*%
D25*
%TO.C,R7*%
X254250000Y-150837500D03*
X254250000Y-152662500D03*
%TD*%
D18*
%TO.C,C2*%
X257750000Y-151387500D03*
X257750000Y-153112500D03*
%TD*%
D24*
%TO.C,R19*%
X247162500Y-155760000D03*
X245337500Y-155760000D03*
%TD*%
M02*
