%TF.GenerationSoftware,KiCad,Pcbnew,10.0.0*%
%TF.CreationDate,2026-06-02T21:28:21+02:00*%
%TF.ProjectId,stm32g474RET6 plytka,73746d33-3267-4343-9734-524554362070,rev?*%
%TF.SameCoordinates,Original*%
%TF.FileFunction,Paste,Bot*%
%TF.FilePolarity,Positive*%
%FSLAX46Y46*%
G04 Gerber Fmt 4.6, Leading zero omitted, Abs format (unit mm)*
G04 Created by KiCad (PCBNEW 10.0.0) date 2026-06-02 21:28:21*
%MOMM*%
%LPD*%
G01*
G04 APERTURE LIST*
G04 Aperture macros list*
%AMRoundRect*
0 Rectangle with rounded corners*
0 $1 Rounding radius*
0 $2 $3 $4 $5 $6 $7 $8 $9 X,Y pos of 4 corners*
0 Add a 4 corners polygon primitive as box body*
4,1,4,$2,$3,$4,$5,$6,$7,$8,$9,$2,$3,0*
0 Add four circle primitives for the rounded corners*
1,1,$1+$1,$2,$3*
1,1,$1+$1,$4,$5*
1,1,$1+$1,$6,$7*
1,1,$1+$1,$8,$9*
0 Add four rect primitives between the rounded corners*
20,1,$1+$1,$2,$3,$4,$5,0*
20,1,$1+$1,$4,$5,$6,$7,0*
20,1,$1+$1,$6,$7,$8,$9,0*
20,1,$1+$1,$8,$9,$2,$3,0*%
G04 Aperture macros list end*
%ADD10R,1.000000X1.270000*%
%ADD11RoundRect,0.237500X-0.250000X-0.237500X0.250000X-0.237500X0.250000X0.237500X-0.250000X0.237500X0*%
%ADD12RoundRect,0.237500X0.250000X0.237500X-0.250000X0.237500X-0.250000X-0.237500X0.250000X-0.237500X0*%
%ADD13RoundRect,0.250000X1.000000X-1.400000X1.000000X1.400000X-1.000000X1.400000X-1.000000X-1.400000X0*%
%ADD14RoundRect,0.237500X0.237500X-0.300000X0.237500X0.300000X-0.237500X0.300000X-0.237500X-0.300000X0*%
%ADD15RoundRect,0.237500X-0.237500X0.250000X-0.237500X-0.250000X0.237500X-0.250000X0.237500X0.250000X0*%
%ADD16R,0.900000X1.500000*%
%ADD17R,1.500000X0.900000*%
%ADD18R,0.900000X0.900000*%
%ADD19R,0.325000X0.250000*%
%ADD20R,0.850000X0.250000*%
%ADD21R,0.250000X0.700000*%
%ADD22R,1.250000X0.740000*%
%ADD23R,1.600000X1.000000*%
%ADD24R,0.250000X0.325000*%
%ADD25R,0.500000X0.625000*%
%ADD26RoundRect,0.237500X0.300000X0.237500X-0.300000X0.237500X-0.300000X-0.237500X0.300000X-0.237500X0*%
%ADD27RoundRect,0.237500X0.237500X-0.250000X0.237500X0.250000X-0.237500X0.250000X-0.237500X-0.250000X0*%
%ADD28RoundRect,0.237500X-0.237500X0.300000X-0.237500X-0.300000X0.237500X-0.300000X0.237500X0.300000X0*%
%ADD29R,1.060000X1.060000*%
G04 APERTURE END LIST*
D10*
%TO.C,S2*%
X233100000Y-122190000D03*
X233100000Y-129810000D03*
%TD*%
%TO.C,S1*%
X227000000Y-122190000D03*
X227000000Y-129810000D03*
%TD*%
D11*
%TO.C,R3*%
X238412500Y-142400000D03*
X236587500Y-142400000D03*
%TD*%
D12*
%TO.C,R2*%
X230987500Y-141500000D03*
X232812500Y-141500000D03*
%TD*%
D13*
%TO.C,D3*%
X222850000Y-146250000D03*
X229650000Y-146250000D03*
%TD*%
D12*
%TO.C,R10*%
X263662500Y-127830000D03*
X261837500Y-127830000D03*
%TD*%
D14*
%TO.C,C21*%
X253110952Y-125192500D03*
X253110952Y-123467500D03*
%TD*%
D15*
%TO.C,R13*%
X200000000Y-126425000D03*
X200000000Y-128250000D03*
%TD*%
D16*
%TO.C,IC5*%
X196000000Y-131500000D03*
X197270000Y-131500000D03*
X198540000Y-131500000D03*
X199810000Y-131500000D03*
X201080000Y-131500000D03*
X202350000Y-131500000D03*
X203620000Y-131500000D03*
X204890000Y-131500000D03*
X206160000Y-131500000D03*
X207430000Y-131500000D03*
X208700000Y-131500000D03*
X209970000Y-131500000D03*
X211240000Y-131500000D03*
X212510000Y-131500000D03*
D17*
X213760000Y-133265000D03*
X213760000Y-134535000D03*
X213760000Y-135805000D03*
X213760000Y-137075000D03*
X213760000Y-138345000D03*
X213760000Y-139615000D03*
X213760000Y-140885000D03*
X213760000Y-142155000D03*
X213760000Y-143425000D03*
X213760000Y-144695000D03*
X213760000Y-145965000D03*
X213760000Y-147235000D03*
D16*
X212510000Y-149000000D03*
X211240000Y-149000000D03*
X209970000Y-149000000D03*
X208700000Y-149000000D03*
X207430000Y-149000000D03*
X206160000Y-149000000D03*
X204890000Y-149000000D03*
X203620000Y-149000000D03*
X202350000Y-149000000D03*
X201080000Y-149000000D03*
X199810000Y-149000000D03*
X198540000Y-149000000D03*
X197270000Y-149000000D03*
X196000000Y-149000000D03*
D18*
X203720000Y-138750000D03*
X202320000Y-138750000D03*
X202320000Y-137350000D03*
X203720000Y-137350000D03*
X205120000Y-137350000D03*
X205120000Y-138750000D03*
X205120000Y-140150000D03*
X203720000Y-140150000D03*
X202320000Y-140150000D03*
%TD*%
D19*
%TO.C,IC4*%
X259148952Y-128805000D03*
D20*
X258885952Y-129455000D03*
X258885952Y-130255000D03*
X258885952Y-130905000D03*
X258885952Y-131705000D03*
X258885952Y-132355000D03*
X258885952Y-133005000D03*
D19*
X259148952Y-133655000D03*
D21*
X258110952Y-134080000D03*
X257610952Y-134080000D03*
X257110952Y-134080000D03*
X256610952Y-134080000D03*
X256110952Y-134080000D03*
D19*
X255072952Y-133655000D03*
D20*
X255335952Y-133005000D03*
X255335952Y-132355000D03*
X255335952Y-131705000D03*
X255335952Y-130905000D03*
X255335952Y-130255000D03*
X255335952Y-129455000D03*
D19*
X255072952Y-128805000D03*
D21*
X256110952Y-128380000D03*
X256610952Y-128380000D03*
X257110952Y-128380000D03*
X257610952Y-128380000D03*
X258110952Y-128380000D03*
D22*
X257110952Y-129305000D03*
D23*
X257110952Y-130630000D03*
X257110952Y-131830000D03*
D22*
X257110952Y-133155000D03*
D24*
X258610952Y-128192000D03*
D25*
X258735952Y-128667000D03*
X258735952Y-133793000D03*
D24*
X258610952Y-134268000D03*
X255610952Y-134268000D03*
D25*
X255485952Y-133793000D03*
X255485952Y-128667000D03*
D24*
X255610952Y-128192000D03*
%TD*%
D11*
%TO.C,R14*%
X214087500Y-153000000D03*
X215912500Y-153000000D03*
%TD*%
D14*
%TO.C,C11*%
X256110952Y-125330000D03*
X256110952Y-123605000D03*
%TD*%
D26*
%TO.C,C18*%
X248335952Y-143380000D03*
X246610952Y-143380000D03*
%TD*%
%TO.C,C16*%
X252612500Y-128830000D03*
X250887500Y-128830000D03*
%TD*%
D27*
%TO.C,R9*%
X261250000Y-125242500D03*
X261250000Y-123417500D03*
%TD*%
D26*
%TO.C,C13*%
X251612500Y-131330000D03*
X249887500Y-131330000D03*
%TD*%
%TO.C,C12*%
X251475000Y-134330000D03*
X249750000Y-134330000D03*
%TD*%
D11*
%TO.C,R15*%
X198087500Y-152000000D03*
X199912500Y-152000000D03*
%TD*%
D12*
%TO.C,R11*%
X206825000Y-151500000D03*
X205000000Y-151500000D03*
%TD*%
D28*
%TO.C,C15*%
X222000000Y-153000000D03*
X222000000Y-154725000D03*
%TD*%
D29*
%TO.C,PS1*%
X261690952Y-138380000D03*
X259400952Y-138380000D03*
X257110952Y-138380000D03*
X254820952Y-138380000D03*
X252530952Y-138380000D03*
X261690952Y-140670000D03*
X259400952Y-140670000D03*
X257110952Y-140670000D03*
X254820952Y-140670000D03*
X252530952Y-140670000D03*
X261690952Y-142960000D03*
X259400952Y-142960000D03*
X257110952Y-142960000D03*
X254820952Y-142960000D03*
X252530952Y-142960000D03*
X261690952Y-145250000D03*
X259400952Y-145250000D03*
X257110952Y-145250000D03*
X254820952Y-145250000D03*
X252530952Y-145250000D03*
X261690952Y-147540000D03*
X259400952Y-147540000D03*
X257110952Y-147540000D03*
X254820952Y-147540000D03*
X252530952Y-147540000D03*
%TD*%
D26*
%TO.C,C19*%
X248473452Y-140380000D03*
X246748452Y-140380000D03*
%TD*%
D27*
%TO.C,R8*%
X258750000Y-125242500D03*
X258750000Y-123417500D03*
%TD*%
M02*
